<svg id="Layer_1" data-name="Layer 1" xmlns="http://www.w3.org/2000/svg" xmlns:xlink="http://www.w3.org/1999/xlink" viewBox="0 0 701.45 683.23"><defs><style>.cls-1{fill:url(#linear-gradient);}</style><linearGradient id="linear-gradient" x1="199.02" y1="531.21" x2="900.46" y2="531.21" gradientUnits="userSpaceOnUse"><stop offset="0.1" stop-color="#005b97"/><stop offset="0.34" stop-color="#0075be"/><stop offset="0.67" stop-color="#1e9cd7"/><stop offset="1" stop-color="#cce0f4"/></linearGradient></defs><title>auth-logo</title><path class="cls-1" d="M863.76,362.66A409.08,409.08,0,0,0,758.93,256.21c-25.45-17.7-71.13-48.79-138.71-61.28-49.41-9.14-88.82-4.33-109.67-1.62-56.53,7.36-97.18,25.55-111.28,32.26A357.4,357.4,0,0,0,309,286.86a348.76,348.76,0,0,0-66.13,83.86c-12.71,22.77-56.33,103.68-40.32,209.67,10.22,67.66,39.94,113.74,53.23,133.86A351.86,351.86,0,0,0,360.56,817.47c15.11,9.61,66.66,40.72,141.93,51.61a376,376,0,0,0,158-11.28c25.07-7.31,75-22.4,125.8-64.52C841.7,747.41,866.2,696,871.82,683.61,890.39,642.88,895,608,897.63,586.84a373.38,373.38,0,0,0-3.23-112.9c-20.6-4.14-49.9-9.26-85.48-12.9-35-3.58-54.46-5.57-79-3.22-21.9,2.08-55.69,8.35-95.16,29a209.66,209.66,0,0,0-38.71,29c-19.32,18.34-30,35.49-41.93,54.83A396.37,396.37,0,0,0,523.45,632H702.88a87.08,87.08,0,0,1-8.26,15.12c-2.4,3.5-9.41,12.78-28.43,26.61a201.59,201.59,0,0,1-39.31,22.38,192.65,192.65,0,0,1-47.18,13.31,182.22,182.22,0,0,1-62.9-1.82,178.71,178.71,0,0,1-62.9-27.22,184.45,184.45,0,0,1-67.13-84.67,169.8,169.8,0,0,1-12.7-68.34c.16-6.08,1.3-36.49,18.14-71.37,13.79-28.55,31.23-45.85,35.08-49.59a174.5,174.5,0,0,1,65.92-39.32c32.58-10.76,59.55-9.12,77.42-7.86,16.64,1.18,41.32,2.92,69,15.73,15.82,7.33,22,13.38,40.52,20A164.26,164.26,0,0,0,724.86,404a212.55,212.55,0,0,0,101.6-19.36A215.88,215.88,0,0,0,863.76,362.66Z" transform="translate(-199.02 -189.6)"/></svg>