<svg id="Layer_1" data-name="Layer 1" xmlns="http://www.w3.org/2000/svg" xmlns:xlink="http://www.w3.org/1999/xlink" viewBox="0 0 989.98 241.77"><defs><style>.cls-1{fill:url(#linear-gradient);}.cls-2{font-size:183.14px;fill:#fff;font-family:Arial-BoldMT, Arial;font-weight:700;}</style><linearGradient id="linear-gradient" x1="38.02" y1="610.43" x2="216" y2="610.43" gradientUnits="userSpaceOnUse"><stop offset="0.1" stop-color="#005b97"/><stop offset="0.34" stop-color="#0075be"/><stop offset="0.67" stop-color="#1e9cd7"/><stop offset="1" stop-color="#cce0f4"/></linearGradient></defs><title>logo-dark</title><path class="cls-1" d="M206.69,567.66a103.84,103.84,0,0,0-26.6-27c-6.46-4.49-18.05-12.38-35.2-15.55a86.12,86.12,0,0,0-27.83-.41,95.17,95.17,0,0,0-28.23,8.18,91.14,91.14,0,0,0-22.92,15.55A88.85,88.85,0,0,0,49.13,569.7C45.91,575.48,34.84,596,38.9,622.9a82.59,82.59,0,0,0,13.51,34A89.27,89.27,0,0,0,79,683.06a92.77,92.77,0,0,0,36,13.1,95.56,95.56,0,0,0,40.1-2.87A85.07,85.07,0,0,0,187,676.92a76.12,76.12,0,0,0,28.24-52.38,94.85,94.85,0,0,0-.82-28.64c-5.22-1.06-12.66-2.36-21.69-3.28s-13.82-1.41-20.05-.82a64.89,64.89,0,0,0-24.14,7.37,52.46,52.46,0,0,0-9.83,7.37c-4.9,4.65-7.62,9-10.64,13.91A100.38,100.38,0,0,0,120.34,636h45.53a22.36,22.36,0,0,1-2.1,3.84c-.61.88-2.39,3.24-7.21,6.75a51.49,51.49,0,0,1-10,5.68,48.34,48.34,0,0,1-12,3.37,46.31,46.31,0,0,1-16-.46,45.34,45.34,0,0,1-16-6.9,46.72,46.72,0,0,1-17-21.49,43,43,0,0,1-3.23-17.34,46.79,46.79,0,0,1,13.51-30.69,44.24,44.24,0,0,1,16.73-10,48.23,48.23,0,0,1,19.64-2,47.05,47.05,0,0,1,17.49,4c4,1.86,5.59,3.39,10.29,5.06a41.19,41.19,0,0,0,11.35,2.3,53.86,53.86,0,0,0,13.58-.93,55.16,55.16,0,0,0,21.67-9.55Z" transform="translate(-38.02 -523.75)"/><text class="cls-2" transform="translate(185.98 172.83)">rowmatic</text></svg>